# xmcd
#
# Track frame offsets: 
#        150
#        13546
#        31630
#        48010
#        66026
#        81760
#        96739
#        112107
#        128615
#        141038
#        155613
#        173902
#        190030
#        205587
#        223070
#        238357
#        252865
#
# Disc length: 3551 seconds
#
# Revision: 0
# Processed by: cddbd v1.5.2PL0 Copyright (c) Steve Scherf et al.
# Submitted via: ExactAudioCopy v0.99pb5
#
DISCID=e70ddd11
DTITLE=배호 - 천상의 가수 배호 전집 (아세아-2006) (10 CD)-03
DYEAR=2006
DGENRE=Country
TTITLE0=누가 울어
TTITLE1=안개속에 가버린 사람
TTITLE2=굳바이
TTITLE3=쎈치멘탈 쟈니
TTITLE4=두메산골
TTITLE5=화전민(정다워라 내고향)
TTITLE6=찾아온 고향
TTITLE7=영월의 애가
TTITLE8=검은 나비
TTITLE9=누가 울어(경음악)
TTITLE10=안개속에 가버린 사람(경음악)
TTITLE11=굳바이(경음악)
TTITLE12=두메산골(경음악)
TTITLE13=센치멘탈 쟈니(MR)
TTITLE14=두메산골(MR)
TTITLE15=화전민(정다워라 내고향)(MR)
TTITLE16=누가 울어(MR)
EXTD=
EXTT0=
EXTT1=
EXTT2=
EXTT3=
EXTT4=
EXTT5=
EXTT6=
EXTT7=
EXTT8=
EXTT9=
EXTT10=
EXTT11=
EXTT12=
EXTT13=
EXTT14=
EXTT15=
EXTT16=
PLAYORDER=
